HIERARCHY
ROOT Hips
{
	OFFSET	0.00	0.00	0.00
	CHANNELS 6 Xposition Yposition Zposition Zrotation Xrotation Yrotation
	JOINT Spine
	{
		OFFSET	 0.00	0.01	 0.00
		CHANNELS 3 Zrotation Xrotation Yrotation
		JOINT Spine1
		{
			OFFSET	 0.00	 2.45913012437421	 0.00
			CHANNELS 3 Zrotation Xrotation Yrotation
            JOINT Neck
            {
                OFFSET	 0.00	 2.48462964506057	 0.00
                CHANNELS 3 Zrotation Xrotation Yrotation
                JOINT Head
                {
                    OFFSET	 0.00	 0.927524780924562	 0.00
                    CHANNELS 3 Zrotation Xrotation Yrotation
                    End Site 
                    {
                        OFFSET	 0.00	 1.14999962169752	 0.00
                    }
                }
            }
			JOINT LeftShoulder
			{
				OFFSET	 0.00	 2.48462964506057	 0.00
				CHANNELS 3 Zrotation Xrotation Yrotation
				JOINT LeftUpArm
				{
					OFFSET	 0.00	 1.24881979654096	 0.00
					CHANNELS 3 Zrotation Xrotation Yrotation
					JOINT LeftForeArm
					{
						OFFSET	 0.00	2.59758046908119	 0.00
						CHANNELS 3 Zrotation Xrotation Yrotation
						JOINT LeftHand
						{
							OFFSET	 0.00	2.45542024364365	 0.00
							CHANNELS 3 Zrotation Xrotation Yrotation
							JOINT LeftHandThumb 
							{
								OFFSET	 0.00	0.00	 0.00
								CHANNELS 3 Zrotation Xrotation Yrotation
								End Site
								{
									OFFSET	 0.00	0.00	1.00000003353624
								}
							}
							JOINT L_Wrist_End 
							{
								OFFSET	 0.00	0.99999967115358	 0.00
								CHANNELS 3 Zrotation Xrotation Yrotation
								End Site 
								{
									OFFSET	 0.00	 0.00	 0.00
								}
							}
						}
					}
				}
			}
			JOINT RightShoulder
			{
				OFFSET	 0.00	 2.48462964506057	 0.00
				CHANNELS 3 Zrotation Xrotation Yrotation
				JOINT RightUpArm
				{
					OFFSET	 0.00	 1.24881979654096	 0.00
					CHANNELS 3 Zrotation Xrotation Yrotation
					JOINT RightForeArm
					{
						OFFSET	 0.00	2.59758046908119	 0.00
						CHANNELS 3 Zrotation Xrotation Yrotation
						JOINT RightHand
						{
							OFFSET	 0.00	2.45542024364365	 0.00
							CHANNELS 3 Zrotation Xrotation Yrotation
							JOINT RightHandThumb 
							{
								OFFSET	 0.00	0.00	 0.00
								CHANNELS 3 Zrotation Xrotation Yrotation
								End Site
								{
									OFFSET	 0.00	0.00	1.00000003353624
								}
							}
							JOINT R_Wrist_End 
							{
								OFFSET	 0.00	0.99999967115358	 0.00
								CHANNELS 3 Zrotation Xrotation Yrotation
								End Site 
								{
									OFFSET	 0.00	 0.00	 0.00
								}
							}
						}
					}
				}
			}
		}
	}
	JOINT LeftUpLeg
	{
		OFFSET	 1.2719394002717	 0.00	 0.00
		CHANNELS 3 Zrotation Xrotation Yrotation
		JOINT LeftLowLeg
		{
			OFFSET	 0.00	-4.3429100912261	 0.00
			CHANNELS 3 Zrotation Xrotation Yrotation
			JOINT LeftFoot
			{
				OFFSET	 0.00	-4.48767017425826	 0.00
				CHANNELS 3 Zrotation Xrotation Yrotation
				JOINT LeftToeBase
                {
                    OFFSET	 0.00	0.00	 1.51507020887566
                    CHANNELS 3 Zrotation Xrotation Yrotation
                    End Site 
                    {
                        OFFSET	 0.00	0.00	 0.75000010571191
                    }
                }
			}
		}
	}
	JOINT RightUpLeg
	{
		OFFSET	 -1.2719393604653	 0.00	 0.00
		CHANNELS 3 Zrotation Xrotation Yrotation
		JOINT RightLowLeg
		{
			OFFSET	 0.00	-4.3429100912261	 0.00
			CHANNELS 3 Zrotation Xrotation Yrotation
			JOINT RightFoot
			{
				OFFSET	 0.00	-4.48767017425826	 0.00
				CHANNELS 3 Zrotation Xrotation Yrotation
				JOINT RightToeBase
                {
                    OFFSET	 0.00	0.00	 1.51507020887566
                    CHANNELS 3 Zrotation Xrotation Yrotation
                    End Site 
                    {
                        OFFSET	 0.00	0.00	 0.749999965609858
                    }
                }   
			}
		}
	}
}
MOTION 
Frames:	11 
Frame Time: 0.02 
 0.6911699676513672 5.118389892578125 9.354949951171875 -152.001 81.2677 507.996 2.20988 -10.6506 0.372408 3.25206 -6.60178 0.389223 -11.8592 62.5137 4.72042 90.1 -79.3534 436.69 -114.7911 -9.84337 -9.32168 12.6633 12.7794 -27.8914 0.0 8.53745 0.0 26.3369 -16.7354 30.288 0.0 0.0 0.0 0.0 0.0 0.0 110.0225 -5.46462 6.50065 -5.88694 1.5893 53.2478 0.0 15.5273 0.0 -32.582 -10.411 -51.3758 0.0 0.0 0.0 0.0 0.0 0.0 5.25298 -4.49004 -0.959548 0.0 6.83322 0.0 -13.3343 0.25010014 14.5398 0.0 -38.077 0.0 6.4655 -6.95013 2.98331 0.0 10.0101 0.0 15.64 4.9927998 -14.9167 0.0 -34.6768 0.0 
  0.6874230194091797 5.1131900024414065 9.354550170898438 -152.133 81.2467 508.108 2.00554 -10.784 0.322583 3.41198 -6.62655 0.393477 -11.4179 62.6847 4.26315 90.0578 -79.2146 436.656 -114.7434 -9.8101 -9.4488 12.6691 12.8071 -27.4618 0.0 8.67483 0.0 26.3379 -16.7907 30.0819 0.0 0.0 0.0 0.0 0.0 0.0 110.0539 -5.46782 6.50023 -5.96766 1.73276 52.9817 0.0 15.4097 0.0 -32.6925 -10.3866 -51.4786 0.0 0.0 0.0 0.0 0.0 0.0 5.25975 -4.50897 -0.923446 0.0 6.88608 0.0 -13.3568 0.19869995 14.5582 0.0 -38.030502 0.0 6.52772 -6.81299 3.75318 0.0 9.77869 0.0 15.8438 4.8174 -15.5196 0.0 -34.6386 0.0 
  0.6832499694824219 5.108469848632812 9.354249877929687 -152.027 81.2205 508.004 1.78024 -10.8511 0.245576 3.67123 -6.75151 0.378757 -11.1563 62.874 4.00073 89.6642 -79.1182 436.213 -114.7593 -9.781 -9.39856 12.7542 12.8407 -27.6622 0.0 8.66404 0.0 26.2928 -16.7148 30.0782 0.0 0.0 0.0 0.0 0.0 0.0 110.059 -5.52757 6.6032 -6.0362 1.97198 52.7024 0.0 15.3975 0.0 -32.7618 -10.4732 -51.5613 0.0 0.0 0.0 0.0 0.0 0.0 5.30746 -4.52143 -0.892804 0.0 6.94173 0.0 -13.3765 0.14890003 14.541 0.0 -38.0117 0.0 6.52196 -6.94267 2.79854 0.0 10.039 0.0 15.5331 5.00243 -14.7637 0.0 -34.6349 0.0 
  0.67970703125 5.104490051269531 9.353670043945312 -152.016 81.2084 508.0 1.48637 -10.8763 0.124164 4.05177 -6.93114 0.338709 -10.9883 63.1088 3.81577 89.2316 -79.0477 435.834 -114.7565 -9.81954 -9.43263 12.6964 12.827 -27.5744 0.0 8.69633 0.0 26.2485 -16.6467 29.8886 0.0 0.0 0.0 0.0 0.0 0.0 110.055405 -5.53866 6.70398 -6.15878 2.21746 52.5108 0.0 15.4231 0.0 -32.6936 -10.578 -51.385 0.0 0.0 0.0 0.0 0.0 0.0 5.33311 -4.5327 -0.879999 0.0 6.99368 0.0 -13.3939 0.10070038 14.5268 0.0 -38.011803 0.0 6.54816 -6.92226 2.78541 0.0 10.0354 0.0 15.5262 4.983 -14.7562 0.0 -34.652397 0.0 
  0.6762139892578125 5.100360107421875 9.352999877929687 -151.989 81.1944 508.009 1.16191 -10.8921 -0.037542 4.49529 -7.13497 0.266571 -10.8607 63.3817 3.66942 88.9326 -78.9813 435.579 -114.7554 -9.85344 -9.62479 12.5518 12.7915 -27.4947 0.0 8.73433 0.0 26.3196 -16.5959 29.859 0.0 0.0 0.0 0.0 0.0 0.0 110.030304 -5.45929 6.71931 -6.29382 2.40612 52.3026 0.0 15.4354 0.0 -32.7257 -10.626 -50.7663 0.0 0.0 0.0 0.0 0.0 0.0 5.36026 -4.53247 -0.91288 0.0 7.01099 0.0 -13.4331 0.059399605 14.514 0.0 -38.0322 0.0 6.57585 -6.88726 2.7736 0.0 10.0121 0.0 15.53 4.9395 -14.7627 0.0 -34.6077 0.0 
  0.6737159729003906 5.095239868164063 9.352630004882812 -151.951 81.1833 507.997 0.841402 -10.9473 -0.195857 4.97582 -7.26531 0.193438 -10.7607 63.656 3.54233 88.7273 -78.927 435.45 -114.8668 -9.89014 -9.62589 12.5443 12.7387 -27.5638 0.0 8.67548 0.0 26.3482 -16.4657 29.6398 0.0 0.0 0.0 0.0 0.0 0.0 110.0155 -5.46397 6.86435 -6.43229 2.74267 52.279 0.0 15.4476 0.0 -32.6426 -10.4701 -50.43 0.0 0.0 0.0 0.0 0.0 0.0 5.38139 -4.502 -0.90966 0.0 6.99363 0.0 -13.4215 0.044799805 14.5012 0.0 -38.0111 0.0 6.59542 -6.83494 2.74912 0.0 9.96946 0.0 15.5222 4.9226 -14.757 0.0 -34.5896 0.0 
  0.6718360137939453 5.090050048828125 9.352009887695312 -152.056 81.1401 508.1 0.541941 -10.8374 -0.322762 5.45963 -7.77088 0.169163 -10.4792 64.0328 3.16134 88.0791 -78.8803 434.973 -114.8832 -9.95194 -9.45796 12.4163 12.6129 -27.6475 0.0 8.70713 0.0 26.3952 -16.4581 29.5411 0.0 0.0 0.0 0.0 0.0 0.0 109.9674 -5.51395 6.77432 -6.57063 2.99839 52.1342 0.0 15.5023 0.0 -32.5474 -10.3813 -50.141 0.0 0.0 0.0 0.0 0.0 0.0 5.40128 -4.49271 -0.85687 0.0 6.95782 0.0 -13.4277 0.024399757 14.458 0.0 -37.9797 0.0 6.62162 -6.83825 2.81667 0.0 9.95548 0.0 15.523 4.8859997 -14.8268 0.0 -34.581398 0.0 
  0.6708280181884766 5.0855801391601565 9.351409912109375 -151.932 81.1267 508.0 0.257405 -10.8356 -0.458959 5.96705 -7.92805 0.110114 -10.1402 64.2602 2.69948 87.8891 -78.8585 435.051 -114.9033 -10.0072 -9.58643 12.1488 12.5169 -27.4135 0.0 8.76463 0.0 26.2979 -16.4205 29.2607 0.0 0.0 0.0 0.0 0.0 0.0 109.9216 -5.54644 6.83485 -6.70363 3.30056 51.9177 0.0 15.5765 0.0 -32.4642 -10.2718 -50.0513 0.0 0.0 0.0 0.0 0.0 0.0 5.42804 -4.46675 -0.844995 0.0 6.95112 0.0 -13.4356 -0.004500389 14.4227 0.0 -38.0067 0.0 6.6469 -6.80532 2.76954 0.0 9.94663 0.0 15.4974 4.8763 -14.819 0.0 -34.5683 0.0 
  0.6708280181884766 5.082439880371094 9.350910034179687 -151.886 81.1272 507.931 0.086068 -10.8363 -0.52474 6.29213 -8.01363 0.0907863 -9.95457 64.3973 2.44528 87.7052 -78.8445 435.058 -114.9386 -9.98473 -9.48848 12.0361 12.3811 -27.5033 0.0 8.76066 0.0 26.2523 -16.4018 29.2891 0.0 0.0 0.0 0.0 0.0 0.0 109.873 -5.61885 6.89387 -6.76446 3.56993 51.6504 0.0 15.61 0.0 -32.4018 -10.2494 -49.8964 0.0 0.0 0.0 0.0 0.0 0.0 5.43265 -4.43011 -0.835103 0.0 6.9395 0.0 -13.4386 -0.034700394 14.4339 0.0 -38.015 0.0 6.70249 -6.67451 3.5623 0.0 9.76204 0.0 15.7394 4.6829004 -15.4295 0.0 -34.540398 0.0 
  0.6713169860839844 5.077739868164063 9.350289916992187 -151.762 81.1347 507.81 -0.133659 -10.839 -0.660544 6.73495 -8.10427 0.0109252 -9.894 64.5715 2.31047 87.4693 -78.8591 435.092 -114.9868 -10.0781 -9.36981 11.8473 12.2512 -27.6115 0.0 8.72383 0.0 26.1346 -16.3012 29.1635 0.0 0.0 0.0 0.0 0.0 0.0 109.9608 -5.34595 7.41603 -7.07287 3.63091 50.8186 0.0 15.6513 0.0 -32.1108 -10.2144 -49.6347 0.0 0.0 0.0 0.0 0.0 0.0 5.43489 -4.38602 -0.894775 0.0 6.94704 0.0 -13.443 -0.09720039 14.4773 0.0 -37.9488 0.0 6.71901 -6.61687 3.67349 0.0 9.74449 0.0 15.7518 4.6316004 -15.5353 0.0 -34.473 0.0 
  0.6725379943847656 5.073469848632812 9.349849853515625 -151.635 81.1595 507.69 -0.278709 -10.8258 -0.764826 7.05188 -8.1776 -0.0561974 -9.772 64.7441 2.096 87.4621 -78.8729 435.377 -114.9636 -10.1323 -9.39772 11.5853 12.1592 -27.512 0.0 8.63962 0.0 26.0336 -16.2214 28.8381 0.0 0.0 0.0 0.0 0.0 0.0 109.9741 -5.37629 7.45171 -7.18438 3.93593 50.5336 0.0 15.7249 0.0 -31.9618 -10.1468 -49.5652 0.0 0.0 0.0 0.0 0.0 0.0 5.42244 -4.32989 -0.986208 0.0 6.95024 0.0 -13.4346 -0.14150047 14.5544 0.0 -37.918503 0.0 6.71961 -6.55625 3.71466 0.0 9.74359 0.0 15.7525 4.5902996 -15.59 0.0 -34.4517 0.0 
